# xmcd
#
# Track frame offsets:
#	150
#	16448
#	28629
#	43196
#	55872
#	70996
#	83313
#	100955
#	118864
#	133989
#	152984
#	171099
#	185607
#	201244
#	218703
#	235755
#	249525
#	265179
#
# Disc length: 3825 seconds
#
# Revision: 0
# Processed by: cddbd v1.5.2PL0 Copyright (c) Steve Scherf et al.
# Submitted via: EZCDAudioConverter 7.0.7.1
#
DISCID=020eef12
DTITLE=Nu Urban Traxx Volume 244 US
DYEAR=2017
DGENRE=blues
TTITLE0=A Boogie Wit Da Hoodie - Say A
TTITLE1=Blac Youngsta - Booty
TTITLE2=Shy Glizzy - Take Me Away
TTITLE3=Lyrica Anderson ft. Tyga - Don't Take It Personal [Remix]
TTITLE4=H.E.R. - Focus
TTITLE5=5AM - Only One
TTITLE6=Mike Darole ft. RJ and Compton AV - Hello
TTITLE7=Farruko, Nicki Minaj, Bad Bunny, 21 Savage and Rvssian - Krippy Kush [Re
TTITLE7=mix]
TTITLE8=O.T. Genasis - Everybody Mad
TTITLE9=Ludacris - Vices
TTITLE10=Mally Mall ft. Jeremih and E-40 - Physical
TTITLE11=Famous Dex ft. A$AP Rocky - Pick It Up
TTITLE12=Trevor Jackson - B&W (Benz And My Wallet)
TTITLE13=En Vogue - Rocket
TTITLE14=Charlie Wilson - Chills
TTITLE15=Jeezy ft. Tee Grizzley - Cold Summer
TTITLE16=Kenny Lattimore - Push
TTITLE17=Mali Music - Still
EXTD=
EXTT0=
EXTT1=
EXTT2=
EXTT3=
EXTT4=
EXTT5=
EXTT6=
EXTT7=
EXTT8=
EXTT9=
EXTT10=
EXTT11=
EXTT12=
EXTT13=
EXTT14=
EXTT15=
EXTT16=
EXTT17=
PLAYORDER=
